<?xml version="1.0" encoding="iso-8859-1"?>
<!-- Generator: Adobe Illustrator 19.1.0, SVG Export Plug-In . SVG Version: 6.00 Build 0)  -->
<svg version="1.1" id="Capa_1" xmlns="http://www.w3.org/2000/svg" xmlns:xlink="http://www.w3.org/1999/xlink" x="0px" y="0px"
	 viewBox="0 0 298.435 298.435" style="enable-background:new 0 0 298.435 298.435;" xml:space="preserve">
<g>
	<path style="fill:none;" d="M59.884,248.435v-20.338c-2,1.668-5,2.939-9,3.741v16.597H59.884z"/>
	<path style="fill:none;" d="M237.884,228.673v19.762h8v-16.596C243.884,231.132,240.884,230.058,237.884,228.673z"/>
	<path style="fill:#A9BD34;" d="M43.216,216.824c9.374,0,17.001-7.626,17.001-16.999c0-9.374-7.627-17-17.001-17
		c-9.373,0-16.999,7.626-16.999,17C26.217,209.198,33.843,216.824,43.216,216.824z"/>
	<path style="fill:#A9BD34;" d="M237.884,205.514c3,6.58,8.79,11.311,16.166,11.311c9.374,0,17.084-7.626,17.084-16.999
		c0-9.374-7.752-17-17.126-17c-7.376,0-13.124,4.73-16.124,11.311V205.514z"/>
	<path style="fill:#4F9100;" d="M59.884,282.435v-18H25.717c-4.963,0-9,4.037-9,9c0,5.299,4.523,9,11,9H59.884z"/>
	<path style="fill:#4F9100;" d="M281.717,273.435c0-4.963-4.037-9-9-9h-34.833v18h36.833
		C277.471,282.435,281.717,278.57,281.717,273.435z"/>
	<path d="M272.717,248.435h-10.833v-16.597c15-3.585,25.167-16.576,25.167-32.013c0-18.196-14.887-33-33.084-33
		c-5.803,0-11.082,1.511-16.082,4.151V58.435c0-4.418-3.249-8-7.667-8h-162c-4.418,0-8.333,3.582-8.333,8v113.118
		c-5-2.999-10.62-4.728-16.834-4.728c-18.195,0-33.082,14.804-33.082,33c0,15.438,10.917,28.428,24.917,32.014v16.596h-9.167
		c-13.785,0-25,11.215-25,25c0,14.252,11.607,25,27,25h247c12.252,0,23-11.683,23-25
		C297.717,259.649,286.503,248.435,272.717,248.435z M16.717,273.435c0-4.963,4.037-9,9-9h34.167v18H27.717
		C21.241,282.435,16.717,278.733,16.717,273.435z M43.216,182.825c9.374,0,17.001,7.626,17.001,17
		c0,9.373-7.627,16.999-17.001,16.999c-9.373,0-16.999-7.626-16.999-16.999C26.217,190.451,33.843,182.825,43.216,182.825z
		 M75.884,66.435h146v216h-24v-42c0-4.418-3.249-8-7.667-8h-82c-4.418,0-8.333,3.582-8.333,8v42h-24V66.435z M254.05,182.825
		c9.374,0,17.084,7.626,17.084,17c0,9.373-7.752,16.999-17.126,16.999c-7.376,0-13.124-4.73-16.124-11.311v-11.378
		C240.884,187.556,246.674,182.825,254.05,182.825z M237.884,248.435v-19.762c3,1.385,6,2.459,8,3.166v16.596H237.884z
		 M115.884,248.435h9v34h-9V248.435z M140.884,248.435h16v34h-16V248.435z M172.884,248.435h9v34h-9V248.435z M59.884,228.097
		v20.338h-9v-16.597C54.884,231.036,57.884,229.765,59.884,228.097z M237.884,264.435h34.833c4.963,0,9,4.037,9,9
		c0,5.136-4.246,9-7,9h-36.833V264.435z"/>
	<path style="fill:#FFFFFF;" d="M75.884,282.435h24v-42c0-4.418,3.915-8,8.333-8h82c4.418,0,7.667,3.582,7.667,8v42h24v-216h-146
		V282.435z M190.884,90.435c0-4.418,3.582-8,8-8c4.418,0,8,3.582,8,8v17c0,4.418-3.582,8-8,8c-4.418,0-8-3.582-8-8V90.435z
		 M190.884,139.435c0-4.418,3.582-8,8-8c4.418,0,8,3.582,8,8v17c0,4.418-3.582,8-8,8c-4.418,0-8-3.582-8-8V139.435z
		 M190.884,189.435c0-4.418,3.582-8,8-8c4.418,0,8,3.582,8,8v17c0,4.418-3.582,8-8,8c-4.418,0-8-3.582-8-8V189.435z M156.884,90.435
		c0-4.418,3.582-8,8-8c4.418,0,8,3.582,8,8v17c0,4.418-3.582,8-8,8c-4.418,0-8-3.582-8-8V90.435z M156.884,139.435
		c0-4.418,3.582-8,8-8c4.418,0,8,3.582,8,8v17c0,4.418-3.582,8-8,8c-4.418,0-8-3.582-8-8V139.435z M156.884,189.435
		c0-4.418,3.582-8,8-8c4.418,0,8,3.582,8,8v17c0,4.418-3.582,8-8,8c-4.418,0-8-3.582-8-8V189.435z M123.884,90.435
		c0-4.418,3.582-8,8-8c4.418,0,8,3.582,8,8v17c0,4.418-3.582,8-8,8c-4.418,0-8-3.582-8-8V90.435z M123.884,139.435
		c0-4.418,3.582-8,8-8c4.418,0,8,3.582,8,8v17c0,4.418-3.582,8-8,8c-4.418,0-8-3.582-8-8V139.435z M123.884,189.435
		c0-4.418,3.582-8,8-8c4.418,0,8,3.582,8,8v17c0,4.418-3.582,8-8,8c-4.418,0-8-3.582-8-8V189.435z M90.884,90.435
		c0-4.418,3.582-8,8-8s8,3.582,8,8v17c0,4.418-3.582,8-8,8s-8-3.582-8-8V90.435z M90.884,139.435c0-4.418,3.582-8,8-8s8,3.582,8,8
		v17c0,4.418-3.582,8-8,8s-8-3.582-8-8V139.435z M90.884,189.435c0-4.418,3.582-8,8-8s8,3.582,8,8v17c0,4.418-3.582,8-8,8
		s-8-3.582-8-8V189.435z"/>
	<path d="M98.884,214.435c4.418,0,8-3.582,8-8v-17c0-4.418-3.582-8-8-8s-8,3.582-8,8v17
		C90.884,210.853,94.466,214.435,98.884,214.435z"/>
	<path d="M98.884,164.435c4.418,0,8-3.582,8-8v-17c0-4.418-3.582-8-8-8s-8,3.582-8,8v17
		C90.884,160.853,94.466,164.435,98.884,164.435z"/>
	<path d="M98.884,115.435c4.418,0,8-3.582,8-8v-17c0-4.418-3.582-8-8-8s-8,3.582-8,8v17
		C90.884,111.853,94.466,115.435,98.884,115.435z"/>
	<path d="M131.884,214.435c4.418,0,8-3.582,8-8v-17c0-4.418-3.582-8-8-8c-4.418,0-8,3.582-8,8v17
		C123.884,210.853,127.466,214.435,131.884,214.435z"/>
	<path d="M131.884,164.435c4.418,0,8-3.582,8-8v-17c0-4.418-3.582-8-8-8c-4.418,0-8,3.582-8,8v17
		C123.884,160.853,127.466,164.435,131.884,164.435z"/>
	<path d="M131.884,115.435c4.418,0,8-3.582,8-8v-17c0-4.418-3.582-8-8-8c-4.418,0-8,3.582-8,8v17
		C123.884,111.853,127.466,115.435,131.884,115.435z"/>
	<path d="M164.884,214.435c4.418,0,8-3.582,8-8v-17c0-4.418-3.582-8-8-8c-4.418,0-8,3.582-8,8v17
		C156.884,210.853,160.466,214.435,164.884,214.435z"/>
	<path d="M164.884,164.435c4.418,0,8-3.582,8-8v-17c0-4.418-3.582-8-8-8c-4.418,0-8,3.582-8,8v17
		C156.884,160.853,160.466,164.435,164.884,164.435z"/>
	<path d="M164.884,115.435c4.418,0,8-3.582,8-8v-17c0-4.418-3.582-8-8-8c-4.418,0-8,3.582-8,8v17
		C156.884,111.853,160.466,115.435,164.884,115.435z"/>
	<path d="M198.884,214.435c4.418,0,8-3.582,8-8v-17c0-4.418-3.582-8-8-8c-4.418,0-8,3.582-8,8v17
		C190.884,210.853,194.466,214.435,198.884,214.435z"/>
	<path d="M198.884,164.435c4.418,0,8-3.582,8-8v-17c0-4.418-3.582-8-8-8c-4.418,0-8,3.582-8,8v17
		C190.884,160.853,194.466,164.435,198.884,164.435z"/>
	<path d="M198.884,115.435c4.418,0,8-3.582,8-8v-17c0-4.418-3.582-8-8-8c-4.418,0-8,3.582-8,8v17
		C190.884,111.853,194.466,115.435,198.884,115.435z"/>
	<rect x="172.884" y="248.435" style="fill:#B4EBDD;" width="9" height="34"/>
	<rect x="115.884" y="248.435" style="fill:#B4EBDD;" width="9" height="34"/>
	<rect x="140.884" y="248.435" style="fill:#0096A5;" width="16" height="34"/>
	<path d="M111.327,22.193c0.5,0,0.999,0.125,1.45,0.373c-0.082-0.793,0.157-1.585,0.657-2.199c-0.929-0.2-1.716-0.833-2.107-1.711
		c-0.394,0.884-1.188,1.519-2.124,1.715c0.506,0.61,0.751,1.401,0.677,2.194C110.33,22.317,110.829,22.193,111.327,22.193z"/>
	<path d="M98.037,19.92l5.279,3.568l-2.005,5.905c-0.419,1.234,0.008,2.6,1.057,3.375c1.048,0.777,2.477,0.786,3.537,0.023
		l5.398-3.885l5.415,4.007c0.529,0.393,1.156,0.589,1.784,0.589c0.617,0,1.235-0.19,1.761-0.571c1.06-0.768,1.499-2.134,1.086-3.375
		l-2.021-6.079l5.283-3.554c1.095-0.736,1.58-2.103,1.194-3.364c-0.385-1.263-1.55-2.125-2.869-2.125h-6.689l-2.066-6.361
		C113.778,6.837,112.626,6,111.327,6c-1.3,0-2.451,0.837-2.854,2.073l-2.066,6.361h-6.689c-1.318,0-2.482,0.86-2.868,2.121
		C96.462,17.816,96.945,19.182,98.037,19.92z M111.327,18.656c0.392,0.878,1.179,1.511,2.107,1.711
		c-0.5,0.614-0.739,1.406-0.657,2.199c-0.451-0.248-0.95-0.373-1.45-0.373c-0.498,0-0.997,0.124-1.447,0.372
		c0.074-0.793-0.171-1.584-0.677-2.194C110.138,20.175,110.933,19.54,111.327,18.656z"/>
	<path d="M73.827,28.193c0.5,0,0.999,0.125,1.45,0.373c-0.082-0.793,0.157-1.585,0.657-2.199c-0.929-0.2-1.716-0.833-2.107-1.711
		c-0.394,0.884-1.188,1.519-2.124,1.715c0.506,0.61,0.751,1.401,0.677,2.194C72.83,28.317,73.329,28.193,73.827,28.193z"/>
	<path d="M60.537,25.92l5.279,3.568l-2.005,5.905c-0.419,1.234,0.008,2.6,1.057,3.375c1.048,0.776,2.478,0.786,3.537,0.023
		l5.398-3.885l5.415,4.007c0.529,0.393,1.156,0.589,1.784,0.589c0.617,0,1.235-0.19,1.761-0.571c1.06-0.768,1.499-2.134,1.086-3.375
		l-2.021-6.079l5.283-3.554c1.095-0.736,1.58-2.103,1.194-3.364c-0.385-1.263-1.55-2.125-2.869-2.125h-6.69l-2.066-6.361
		C76.278,12.837,75.126,12,73.827,12c-1.3,0-2.451,0.837-2.854,2.073l-2.066,6.361h-6.689c-1.318,0-2.482,0.86-2.868,2.121
		C58.962,23.816,59.445,25.182,60.537,25.92z M73.827,24.656c0.392,0.878,1.179,1.511,2.107,1.711
		c-0.5,0.614-0.739,1.406-0.657,2.199c-0.451-0.248-0.95-0.373-1.45-0.373c-0.498,0-0.997,0.124-1.447,0.372
		c0.074-0.793-0.171-1.584-0.677-2.194C72.638,26.175,73.433,25.54,73.827,24.656z"/>
	<path d="M184.992,22.567c0.899-0.497,1.996-0.499,2.898-0.002c-0.074-0.793,0.171-1.584,0.677-2.194
		c-0.936-0.196-1.73-0.831-2.124-1.715c-0.392,0.878-1.179,1.511-2.107,1.711C184.834,20.982,185.074,21.774,184.992,22.567z"/>
	<path d="M173.158,19.924l5.283,3.554l-2.02,6.079c-0.413,1.241,0.026,2.607,1.086,3.375c0.525,0.381,1.143,0.571,1.761,0.571
		c0.627,0,1.255-0.196,1.784-0.589l5.415-4.007l5.397,3.885c1.06,0.762,2.489,0.754,3.537-0.023
		c1.049-0.775,1.476-2.141,1.057-3.375l-2.005-5.905l5.279-3.568c1.092-0.738,1.574-2.104,1.188-3.364
		c-0.386-1.261-1.55-2.121-2.868-2.121h-6.69l-2.066-6.361C188.893,6.837,187.742,6,186.442,6c-1.3,0-2.451,0.837-2.854,2.073
		l-2.066,6.361h-6.689c-1.319,0-2.484,0.862-2.869,2.125C171.578,17.821,172.063,19.188,173.158,19.924z M186.442,18.656
		c0.394,0.884,1.188,1.519,2.124,1.715c-0.506,0.61-0.751,1.401-0.677,2.194c-0.901-0.497-1.998-0.495-2.898,0.002
		c0.082-0.794-0.157-1.586-0.657-2.2C185.263,20.167,186.05,19.534,186.442,18.656z"/>
	<path d="M222.492,28.567c0.899-0.497,1.996-0.499,2.898-0.002c-0.074-0.793,0.171-1.584,0.677-2.194
		c-0.936-0.196-1.73-0.831-2.124-1.715c-0.392,0.878-1.179,1.511-2.107,1.711C222.335,26.982,222.574,27.774,222.492,28.567z"/>
	<path d="M210.658,25.924l5.283,3.554l-2.021,6.079c-0.413,1.241,0.026,2.607,1.086,3.375c0.525,0.381,1.143,0.571,1.761,0.571
		c0.627,0,1.255-0.196,1.784-0.589l5.415-4.007l5.398,3.885c1.06,0.762,2.489,0.754,3.537-0.023
		c1.049-0.775,1.476-2.141,1.057-3.375l-2.005-5.905l5.279-3.568c1.092-0.738,1.574-2.104,1.188-3.364
		c-0.386-1.261-1.55-2.121-2.868-2.121h-6.689l-2.066-6.361c-0.402-1.236-1.554-2.073-2.854-2.073c-1.3,0-2.451,0.837-2.854,2.073
		l-2.066,6.361h-6.689c-1.319,0-2.484,0.862-2.869,2.125C209.078,23.821,209.563,25.188,210.658,25.924z M223.942,24.656
		c0.394,0.884,1.189,1.519,2.124,1.715c-0.506,0.61-0.751,1.401-0.677,2.194c-0.901-0.497-1.998-0.495-2.898,0.002
		c0.082-0.794-0.157-1.586-0.657-2.2C222.763,26.167,223.55,25.534,223.942,24.656z"/>
	<path d="M148.827,16.193c0.5,0,0.999,0.125,1.45,0.373c-0.082-0.793,0.157-1.585,0.657-2.199c-0.929-0.2-1.716-0.833-2.107-1.711
		c-0.394,0.884-1.189,1.519-2.124,1.715c0.506,0.61,0.751,1.401,0.677,2.194C147.83,16.317,148.329,16.193,148.827,16.193z"/>
	<path d="M135.537,13.92l5.279,3.568l-2.005,5.905c-0.419,1.234,0.008,2.6,1.057,3.375c1.048,0.777,2.477,0.786,3.537,0.023
		l5.398-3.885l5.415,4.007c0.529,0.393,1.156,0.589,1.784,0.589c0.617,0,1.235-0.191,1.761-0.571
		c1.06-0.768,1.499-2.134,1.086-3.375l-2.02-6.079l5.283-3.554c1.095-0.736,1.58-2.103,1.194-3.364
		c-0.385-1.263-1.55-2.125-2.869-2.125h-6.689l-2.066-6.361C151.278,0.837,150.126,0,148.827,0s-2.451,0.837-2.854,2.073
		l-2.066,6.361h-6.689c-1.318,0-2.482,0.86-2.868,2.121C133.962,11.816,134.445,13.182,135.537,13.92z M148.827,12.656
		c0.392,0.878,1.179,1.511,2.107,1.711c-0.5,0.614-0.739,1.406-0.657,2.199c-0.451-0.248-0.95-0.373-1.45-0.373
		c-0.498,0-0.997,0.124-1.447,0.372c0.074-0.793-0.171-1.584-0.677-2.194C147.638,14.175,148.433,13.54,148.827,12.656z"/>
</g>
<g>
</g>
<g>
</g>
<g>
</g>
<g>
</g>
<g>
</g>
<g>
</g>
<g>
</g>
<g>
</g>
<g>
</g>
<g>
</g>
<g>
</g>
<g>
</g>
<g>
</g>
<g>
</g>
<g>
</g>
</svg>
