<?xml version="1.0" encoding="UTF-8"?>
<!DOCTYPE svg PUBLIC "-//W3C//DTD SVG 1.1//EN" "http://www.w3.org/Graphics/SVG/1.1/DTD/svg11.dtd">
<!-- Creator: CorelDRAW X6 -->
<svg xmlns="http://www.w3.org/2000/svg" xml:space="preserve" width="3.29166in" height="3.31944in" version="1.1" style="shape-rendering:geometricPrecision; text-rendering:geometricPrecision; image-rendering:optimizeQuality; fill-rule:evenodd; clip-rule:evenodd"
viewBox="0 0 3292 3319"
 xmlns:xlink="http://www.w3.org/1999/xlink">
 <defs>
  <style type="text/css">
   <![CDATA[
    .fil0 {fill:#0096A5;fill-rule:nonzero}
    .fil1 {fill:black;fill-rule:nonzero}
    .fil2 {fill:white;fill-rule:nonzero}
   ]]>
  </style>
 </defs>
 <g id="Layer_x0020_1">
  <metadata id="CorelCorpID_0Corel-Layer"/>
  <path class="fil0" d="M178 3128l2933 0 0 -2944 -2933 0 0 2944zm1465 -2750c708,0 1283,576 1283,1283 0,708 -576,1283 -1283,1283 -708,0 -1283,-576 -1283,-1283 0,-708 576,-1283 1283,-1283z"/>
  <path class="fil1" d="M3289 94c0,-49 -40,-89 -89,-89l-3111 0c-49,0 -89,40 -89,89l0 3122c0,49 40,89 89,89l3111 0c49,0 89,-40 89,-89l0 -3122zm-178 3033l-2933 0 0 -2944 2933 0 0 2944z"/>
  <path class="fil2" d="M1643 2767c610,0 1106,-496 1106,-1106 0,-610 -496,-1106 -1106,-1106 -610,0 -1106,496 -1106,1106 0,610 496,1106 1106,1106zm-565 -1806c0,-49 40,-89 89,-89 49,0 89,40 89,89l0 611 778 0 0 -611c0,-49 40,-89 89,-89 49,0 89,40 89,89l0 1400c0,49 -40,89 -89,89 -49,0 -89,-40 -89,-89l0 -611 -778 0 0 611c0,49 -40,89 -89,89 -49,0 -89,-40 -89,-89l0 -1400z"/>
  <path class="fil1" d="M1643 2944c708,0 1283,-576 1283,-1283 0,-708 -576,-1283 -1283,-1283 -708,0 -1283,576 -1283,1283 0,708 576,1283 1283,1283zm0 -2389c610,0 1106,496 1106,1106 0,610 -496,1106 -1106,1106 -610,0 -1106,-496 -1106,-1106 0,-610 496,-1106 1106,-1106z"/>
  <path class="fil1" d="M1167 2450c49,0 89,-40 89,-89l0 -611 778 0 0 611c0,49 40,89 89,89 49,0 89,-40 89,-89l0 -1400c0,-49 -40,-89 -89,-89 -49,0 -89,40 -89,89l0 611 -778 0 0 -611c0,-49 -40,-89 -89,-89 -49,0 -89,40 -89,89l0 1400c0,49 40,89 89,89z"/>
 </g>
</svg>
